# xmcd
#
# Track frame offsets:
#	150
#	15467
#	28322
#	42637
#	57172
#	70462
#	83417
#	96530
#	112262
#	126495
#	137852
#	150785
#	165287
#	178947
#	193090
#	207057
#	222670
#	237092
#	251207
#	263680
#	278362
#	292105
#	304547
#
# Disc length: 4238 seconds
# Revision: 0
# Processed by: cddbd v1.5.2PL0 Copyright (c) Steve Scherf et al.
# Submitted via: dBpowerAMP V12.0
#
DISCID=57108c17
DTITLE=Various Artist - Times Ain't Like They Used to Be, Vol. 4: Early American Rural Music
DYEAR=1999
DGENRE=Country
TTITLE0=Jimmie Tarlton - Lowe Bonnie
TTITLE1=William Harris - Early Morning Blues
TTITLE2=Burnett and Rutherford - Billy in the Lowground
TTITLE3=The Dixon Brothers - Rambling Gambler
TTITLE4=Pink Anderson and Simmie Dooley - Every Day in the Week Blues
TTITLE5=Sweet Brothers - I Got a Bulldog
TTITLE6=Cliff Carlisle - Tom Cat Blues
TTITLE7=Hi Henry Brown - Preacher Blues
TTITLE8=The Kessinger Brothers - Salt River
TTITLE9=Golden Melody Boys - Blushing Bride
TTITLE10=Georgia Yellow Hammers - Kiss Me Quick
TTITLE11=Charley Patton - Magnolia Blues
TTITLE12=Angelas LeJeune - Perrodin Two Step
TTITLE13=Fiddling John Carson - Bachelor's Hall
TTITLE14=Tommy Johnson - Walking Shoes (Button up Shoes)
TTITLE15=The Stripling Brothers - Wolves Howling
TTITLE16=James Cole and His Washboard Band - Mistreated the Only Friend You Had
TTITLE17=Martin and Hobbs - Havana River Glide
TTITLE18=Jess Hillard and His West Virginia Hillbillies - I Want Two Wings to Veil My Face
TTITLE19=Jess Hillard and His West Virginia Hillbillies - Make Down the Bed and We'll All Sleep Together
TTITLE20=Skip James - Special Rider Blues
TTITLE21=Watts and Wilson - Walk Right in Belmont
TTITLE22=Reverend D.C. Price and Congregation - Leaving All to Follow Jesus
EXTD=
EXTT0=
EXTT1=
EXTT2=
EXTT3=
EXTT4=
EXTT5=
EXTT6=
EXTT7=
EXTT8=
EXTT9=
EXTT10=
EXTT11=
EXTT12=
EXTT13=
EXTT14=
EXTT15=
EXTT16=
EXTT17=
EXTT18=
EXTT19=
EXTT20=
EXTT21=
EXTT22=
PLAYORDER=
